# xmcd
#
# Track frame offsets: 
#        150
#        30757
#        52583
#        70819
#        85294
#        90570
#        103170
#        113759
#        124932
#        135043
#        149577
#        157723
#        164671
#        176910
#        180539
#        183950
#        195728
#        204814
#        220669
#        246279
#        257978
#
# Disc length: 3459 seconds
#
# Revision: 0
# Processed by: cddbd v1.5.2PL0 Copyright (c) Steve Scherf et al.
# Submitted via: ExactAudioCopy v0.95b4
#
DISCID=190d8115
DTITLE=Ester Koèièková - Rumunským psùm
DYEAR=2005
DGENRE=Blues
TTITLE0=Seznam Sindlerové
TTITLE1=Spalme Dùm netopýrù (pásmo)
TTITLE2=Chci za tebou
TTITLE3=Ukolébavka
TTITLE4=Árie Jaruska
TTITLE5=Sama doma (jen tak)
TTITLE6=Zalobej samba
TTITLE7=Vlozková
TTITLE8=Pití nebolí
TTITLE9=Nepospíchej
TTITLE10=Král zlutých velbloudù
TTITLE11=Spartakiádní
TTITLE12=Blues o bezradné paní
TTITLE13=Cowboy (tradicionál)
TTITLE14=Unsere Jaruschka
TTITLE15=Cirkusová
TTITLE16=Jánosík
TTITLE17=Trénoh valèík
TTITLE18=Marlen
TTITLE19=Verunèina barová (staronová)
TTITLE20=Stopa 21
EXTD=
EXTT0=
EXTT1=
EXTT2=
EXTT3=
EXTT4=
EXTT5=
EXTT6=
EXTT7=
EXTT8=
EXTT9=
EXTT10=
EXTT11=
EXTT12=
EXTT13=
EXTT14=
EXTT15=
EXTT16=
EXTT17=
EXTT18=
EXTT19=
EXTT20=
PLAYORDER=
